<svg xmlns="http://www.w3.org/2000/svg" width="33" height="33" viewBox="0 0 33 33">
  <g id="Group_9018" data-name="Group 9018" transform="translate(-1630 -5514)">
    <rect id="Rectangle_59" data-name="Rectangle 59" width="33" height="33" transform="translate(1630 5514)" fill="none"/>
    <g id="pin" transform="translate(1637.765 5517.882)">
      <path id="Path_932" data-name="Path 932" d="M96.65,4.464A8.848,8.848,0,0,0,89.132,0c-.133,0-.268,0-.4,0a8.848,8.848,0,0,0-7.518,4.463,9.077,9.077,0,0,0-.118,8.969L87.56,25.266l.009.016a1.571,1.571,0,0,0,2.726,0l.009-.016,6.465-11.834a9.077,9.077,0,0,0-.118-8.969Zm-7.719,7.349A3.666,3.666,0,1,1,92.6,8.147,3.671,3.671,0,0,1,88.932,11.813Z" transform="translate(-79.968 0)" fill="#f6c608"/>
    </g>
  </g>
</svg>
