<svg xmlns="http://www.w3.org/2000/svg" width="33" height="33" viewBox="0 0 33 33">
  <g id="Group_134" data-name="Group 134" transform="translate(-0.428 0)">
    <rect id="Rectangle_61" data-name="Rectangle 61" width="33" height="33" transform="translate(0.428 0)" fill="none"/>
    <g id="phone-call" transform="translate(3.911 3.804)">
      <g id="Group_128" data-name="Group 128" transform="translate(0 0)">
        <path id="Path_928" data-name="Path 928" d="M25.472,18.83,21.891,15.25a2.382,2.382,0,0,0-3.964.9,2.437,2.437,0,0,1-2.813,1.535c-2.558-.639-6.01-3.964-6.65-6.65A2.318,2.318,0,0,1,10,8.216a2.382,2.382,0,0,0,.9-3.964L7.313.671a2.554,2.554,0,0,0-3.453,0L1.43,3.1C-1,5.659,1.686,12.436,7.7,18.447s12.788,8.824,15.346,6.266l2.43-2.43A2.554,2.554,0,0,0,25.472,18.83Z" transform="translate(-0.539 0)" fill="#f6c608"/>
      </g>
    </g>
  </g>
</svg>
