<svg xmlns="http://www.w3.org/2000/svg" width="46" height="46" viewBox="0 0 46 46">
  <g id="Group_9019" data-name="Group 9019" transform="translate(-0.321 -0.238)">
    <rect id="Rectangle_67" data-name="Rectangle 67" width="46" height="46" rx="4" transform="translate(0.321 0.238)" fill="none"/>
    <g id="_005-youtube" data-name="005-youtube" transform="translate(7.487 12.031)">
      <g id="Group_32" data-name="Group 32" transform="translate(0 0)">
        <path id="Path_73" data-name="Path 73" d="M29.061,82.011c-.823-1.464-1.717-1.734-3.536-1.836C23.708,80.051,19.138,80,15.179,80s-8.538.051-10.353.173c-1.815.1-2.711.372-3.542,1.838C.436,83.473,0,85.992,0,90.427v.015c0,4.416.436,6.954,1.284,8.4.831,1.464,1.724,1.73,3.54,1.853,1.817.106,6.389.169,10.355.169s8.528-.063,10.348-.167c1.819-.123,2.713-.389,3.536-1.853.856-1.447,1.288-3.985,1.288-8.4v-.015C30.351,85.992,29.918,83.473,29.061,82.011ZM11.381,96.124V84.742l9.485,5.691Z" transform="translate(0 -80)" fill="#f6c608"/>
      </g>
    </g>
  </g>
</svg>
