<svg xmlns="http://www.w3.org/2000/svg" width="33" height="33" viewBox="0 0 33 33">
  <g id="Group_136" data-name="Group 136" transform="translate(0 0)">
    <rect id="Rectangle_59" data-name="Rectangle 59" width="33" height="33" transform="translate(0 0)" fill="none"/>
    <g id="email_1_" data-name="email (1)" transform="translate(3.804 6.974)">
      <g id="Group_131" data-name="Group 131" transform="translate(0 5.253)">
        <g id="Group_130" data-name="Group 130" transform="translate(0 0)">
          <path id="Path_930" data-name="Path 930" d="M13.37,154.452a1.437,1.437,0,0,1-1.492,0L0,147.2v9.64a3.732,3.732,0,0,0,3.731,3.731H21.548a3.732,3.732,0,0,0,3.731-3.731V147.2Z" transform="translate(0 -147.2)" fill="#f6c608"/>
        </g>
      </g>
      <g id="Group_133" data-name="Group 133" transform="translate(0.119 0)">
        <g id="Group_132" data-name="Group 132" transform="translate(0 0)">
          <path id="Path_931" data-name="Path 931" d="M23.476,57.088H5.659a3.709,3.709,0,0,0-3.611,2.925l12.535,7.64,12.5-7.64A3.709,3.709,0,0,0,23.476,57.088Z" transform="translate(-2.048 -57.088)" fill="#f6c608"/>
        </g>
      </g>
    </g>
  </g>
</svg>
