<svg xmlns="http://www.w3.org/2000/svg" width="46" height="46" viewBox="0 0 46 46">
  <g id="Group_9021" data-name="Group 9021" transform="translate(0 -0.238)">
    <rect id="Rectangle_71" data-name="Rectangle 71" width="46" height="46" rx="4" transform="translate(0 0.238)" fill="none"/>
    <g id="_002-facebook-logo" data-name="002-facebook-logo" transform="translate(15.549 8.921)">
      <path id="Path_70" data-name="Path 70" d="M36.094.006,32.6,0c-3.925,0-6.461,2.6-6.461,6.63V9.687H22.626a.549.549,0,0,0-.549.55v4.429a.549.549,0,0,0,.549.549h3.513V26.391a.549.549,0,0,0,.549.549h4.583a.549.549,0,0,0,.549-.549V15.215h4.107a.549.549,0,0,0,.549-.549l0-4.429a.55.55,0,0,0-.55-.55H31.821V7.1c0-1.246.3-1.878,1.919-1.878h2.353a.549.549,0,0,0,.549-.549V.555A.55.55,0,0,0,36.094.006Z" transform="translate(-22.077)" fill="#f6c608"/>
    </g>
  </g>
</svg>
