<svg xmlns="http://www.w3.org/2000/svg" width="47" height="46" viewBox="0 0 47 46">
  <g id="Group_9020" data-name="Group 9020" transform="translate(-0.073 -0.238)">
    <rect id="Rectangle_68" data-name="Rectangle 68" width="47" height="46" rx="4" transform="translate(0.073 0.238)" fill="none"/>
    <g id="instagram_1_" data-name="instagram (1)" transform="translate(9.987 9.31)">
      <path id="Path_74" data-name="Path 74" d="M19.1,0h-11A8.115,8.115,0,0,0,0,8.106v11a8.115,8.115,0,0,0,8.106,8.106h11A8.115,8.115,0,0,0,27.211,19.1v-11A8.115,8.115,0,0,0,19.1,0Zm5.369,19.1A5.369,5.369,0,0,1,19.1,24.473h-11A5.369,5.369,0,0,1,2.737,19.1v-11A5.369,5.369,0,0,1,8.106,2.737h11a5.369,5.369,0,0,1,5.369,5.369v11Z" fill="#f6c608"/>
      <path id="Path_75" data-name="Path 75" d="M140.038,133a7.038,7.038,0,1,0,7.038,7.038A7.046,7.046,0,0,0,140.038,133Zm0,11.338a4.3,4.3,0,1,1,4.3-4.3A4.3,4.3,0,0,1,140.038,144.338Z" transform="translate(-126.432 -126.432)" fill="#f6c608"/>
      <ellipse id="Ellipse_5" data-name="Ellipse 5" cx="1.686" cy="1.686" rx="1.686" ry="1.686" transform="translate(18.97 4.934)" fill="#f6c608"/>
    </g>
  </g>
</svg>
